<svg xmlns="http://www.w3.org/2000/svg" xmlns:xlink="http://www.w3.org/1999/xlink" width="200" zoomAndPan="magnify" viewBox="0 0 150 60" height="80" preserveAspectRatio="xMidYMid meet" version="1.0"><defs><g/><clipPath id="c7359981db"><path d="M 20.304688 25.902344 L 129.695312 25.902344 L 129.695312 34.726562 L 20.304688 34.726562 Z M 20.304688 25.902344 " clip-rule="nonzero"/></clipPath></defs><rect x="-15" width="180" fill="#ffffff" y="-6" height="72" fill-opacity="1"/><rect x="-15" width="180" fill="#ffffff" y="-6" height="72" fill-opacity="1"/><g fill="#202c45" fill-opacity="1"><g transform="translate(-0.76341, 49.290711)"><g><path d="M 19.679688 0.871094 C 22.175781 0.871094 37.675781 -2.613281 37.675781 -19.621094 C 37.675781 -30.941406 29.898438 -40 19.5625 -40 C 17.007812 -40 1.507812 -36.515625 1.507812 -19.503906 C 1.507812 -8.183594 9.171875 0.871094 19.679688 0.871094 Z M 26.472656 -2.554688 C 22.640625 -1.394531 17.300781 -7.664062 13.179688 -18.519531 C 9.054688 -29.375 9.636719 -35.585938 12.65625 -36.574219 C 16.253906 -37.617188 21.074219 -32.453125 25.136719 -22.292969 C 29.664062 -11.03125 29.605469 -3.597656 26.472656 -2.554688 Z M 26.472656 -2.554688 "/></g></g></g><g fill="#202c45" fill-opacity="1"><g transform="translate(36.621579, 49.290711)"><g><path d="M 41.855469 -39.1875 L 29.722656 -39.1875 L 22.640625 -21.539062 L 22.351562 -21.539062 L 13.933594 -39.300781 L 1.394531 -39.1875 L 1.394531 -38.835938 L 4.644531 -33.03125 L 4.644531 0 L 16.894531 0 L 16.894531 -0.289062 C 9.695312 -6.152344 5.921875 -13.875 5.921875 -26.355469 L 5.921875 -30.246094 L 6.210938 -30.246094 L 17.648438 -6.910156 L 18.285156 -6.910156 L 27.980469 -30.769531 L 28.328125 -30.769531 L 28.386719 -3.367188 L 25.253906 -0.347656 L 25.253906 0 L 39.707031 0 L 39.648438 -35.820312 L 41.855469 -38.835938 Z M 41.855469 -39.1875 "/></g></g></g><g fill="#202c45" fill-opacity="1"><g transform="translate(78.82483, 49.290711)"><g><path d="M 19.621094 -38.835938 C 27.515625 -33.378906 27.050781 -21.945312 24.90625 -17.242188 L 23.6875 -13.757812 L 23.453125 -13.757812 L 14.222656 -35.820312 L 17.125 -38.835938 L 17.125 -39.1875 L 0.40625 -39.1875 L 0.40625 -38.835938 L 17.996094 0.871094 L 18.636719 0.871094 L 35.703125 -38.835938 L 35.703125 -39.1875 L 19.621094 -39.1875 Z M 19.621094 -38.835938 "/></g></g></g><g fill="#202c45" fill-opacity="1"><g transform="translate(113.365306, 49.290711)"><g><path d="M 11.667969 -39.1875 L 11.667969 -38.835938 L 14.164062 -31.8125 L 0.40625 -0.347656 L 0.40625 0 L 15.269531 0 L 15.269531 -0.347656 C 12.65625 -3.308594 11.203125 -8.070312 11.089844 -13.585938 L 20.609375 -13.585938 L 24.09375 -3.367188 L 21.132812 -0.347656 L 21.132812 0 L 36.863281 0 L 36.863281 -0.347656 L 23.628906 -39.1875 Z M 11.089844 -14.628906 C 11.203125 -18.34375 11.902344 -22.410156 13.292969 -26.414062 L 14.628906 -30.1875 L 14.976562 -30.1875 L 20.261719 -14.628906 Z M 11.089844 -14.628906 "/></g></g></g><g clip-path="url(#c7359981db)"><path fill="#fbfaf9" d="M 20.304688 25.902344 L 129.683594 25.902344 L 129.683594 34.726562 L 20.304688 34.726562 Z M 20.304688 25.902344 " fill-opacity="1" fill-rule="nonzero"/></g><g fill="#e81c2e" fill-opacity="1"><g transform="translate(33.999426, 31.902021)"><g><path d="M 2.246094 0.0976562 C 3.222656 0.0976562 3.976562 -0.355469 4.183594 -1.066406 L 3.632812 -1.191406 C 3.480469 -0.6875 2.949219 -0.363281 2.253906 -0.363281 C 1.335938 -0.363281 0.753906 -0.808594 0.753906 -1.507812 C 0.753906 -2.207031 1.285156 -2.652344 2.121094 -2.652344 C 2.726562 -2.652344 3.199219 -2.367188 3.34375 -1.917969 L 3.878906 -2.074219 C 3.660156 -2.707031 2.96875 -3.113281 2.109375 -3.113281 C 0.914062 -3.113281 0.160156 -2.488281 0.160156 -1.507812 C 0.160156 -0.519531 0.972656 0.0976562 2.246094 0.0976562 Z M 2.246094 0.0976562 "/></g></g></g><g fill="#e81c2e" fill-opacity="1"><g transform="translate(41.704633, 31.902021)"><g><path d="M 0.015625 0 L 0.632812 0 L 0.980469 -0.660156 L 2.871094 -0.660156 L 3.214844 0 L 3.835938 0 L 2.277344 -3.019531 L 1.589844 -3.019531 Z M 1.152344 -1.074219 L 1.925781 -2.589844 L 1.933594 -2.589844 L 2.699219 -1.074219 Z M 1.152344 -1.074219 "/></g></g></g><g fill="#e81c2e" fill-opacity="1"><g transform="translate(48.966866, 31.902021)"><g><path d="M 3.371094 0.0859375 C 3.601562 0.0859375 3.820312 -0.03125 3.949219 -0.1875 L 3.769531 -0.46875 C 3.707031 -0.371094 3.613281 -0.300781 3.519531 -0.300781 C 3.402344 -0.300781 3.34375 -0.382812 3.292969 -0.484375 L 3.078125 -0.914062 C 3.007812 -1.078125 2.910156 -1.199219 2.765625 -1.277344 L 2.765625 -1.28125 C 3.316406 -1.339844 3.660156 -1.664062 3.660156 -2.117188 C 3.660156 -2.675781 3.21875 -3.019531 2.511719 -3.019531 L 0.214844 -3.019531 L 0.214844 0 L 0.804688 0 L 0.804688 -1.171875 L 2.035156 -1.171875 C 2.25 -1.171875 2.429688 -1.039062 2.53125 -0.828125 L 2.761719 -0.335938 C 2.875 -0.109375 3.050781 0.0859375 3.371094 0.0859375 Z M 0.804688 -1.582031 L 0.804688 -2.597656 L 2.390625 -2.597656 C 2.800781 -2.597656 3.066406 -2.398438 3.066406 -2.082031 C 3.066406 -1.78125 2.800781 -1.582031 2.390625 -1.582031 Z M 0.804688 -1.582031 "/></g></g></g><g fill="#e81c2e" fill-opacity="1"><g transform="translate(56.322809, 31.902021)"><g/></g></g><g fill="#e81c2e" fill-opacity="1"><g transform="translate(60.961256, 31.902021)"><g><path d="M 0.214844 0 L 2.109375 0 C 3.25 0 3.882812 -0.539062 3.882812 -1.507812 C 3.882812 -2.480469 3.25 -3.019531 2.109375 -3.019531 L 0.214844 -3.019531 Z M 0.796875 -0.445312 L 0.796875 -2.5625 L 2.058594 -2.5625 C 2.859375 -2.5625 3.304688 -2.1875 3.304688 -1.507812 C 3.304688 -0.828125 2.859375 -0.445312 2.058594 -0.445312 Z M 0.796875 -0.445312 "/></g></g></g><g fill="#e81c2e" fill-opacity="1"><g transform="translate(68.415163, 31.902021)"><g><path d="M 0.214844 0 L 3.257812 0 L 3.257812 -0.429688 L 0.789062 -0.429688 L 0.789062 -1.355469 L 3.046875 -1.355469 L 3.046875 -1.75 L 0.789062 -1.75 L 0.789062 -2.585938 L 3.214844 -2.585938 L 3.214844 -3.019531 L 0.214844 -3.019531 Z M 0.214844 0 "/></g></g></g><g fill="#e81c2e" fill-opacity="1"><g transform="translate(75.166267, 31.902021)"><g><path d="M 1.378906 0 L 1.972656 0 L 1.972656 -2.554688 L 3.328125 -2.554688 L 3.328125 -3.019531 L 0.0273438 -3.019531 L 0.0273438 -2.554688 L 1.378906 -2.554688 Z M 1.378906 0 "/></g></g></g><g fill="#e81c2e" fill-opacity="1"><g transform="translate(81.92589, 31.902021)"><g><path d="M 0.015625 0 L 0.632812 0 L 0.980469 -0.660156 L 2.871094 -0.660156 L 3.214844 0 L 3.835938 0 L 2.277344 -3.019531 L 1.589844 -3.019531 Z M 1.152344 -1.074219 L 1.925781 -2.589844 L 1.933594 -2.589844 L 2.699219 -1.074219 Z M 1.152344 -1.074219 "/></g></g></g><g fill="#e81c2e" fill-opacity="1"><g transform="translate(89.188125, 31.902021)"><g><path d="M 0.214844 0 L 0.800781 0 L 0.800781 -3.019531 L 0.214844 -3.019531 Z M 0.214844 0 "/></g></g></g><g fill="#e81c2e" fill-opacity="1"><g transform="translate(93.609348, 31.902021)"><g><path d="M 0.214844 0 L 2.738281 0 L 2.738281 -0.46875 L 0.804688 -0.46875 L 0.804688 -3.019531 L 0.214844 -3.019531 Z M 0.214844 0 "/></g></g></g><g fill="#e81c2e" fill-opacity="1"><g transform="translate(99.789699, 31.902021)"><g><path d="M 0.214844 0 L 0.800781 0 L 0.800781 -3.019531 L 0.214844 -3.019531 Z M 0.214844 0 "/></g></g></g><g fill="#e81c2e" fill-opacity="1"><g transform="translate(104.210922, 31.902021)"><g><path d="M 0.214844 0 L 0.785156 0 L 0.785156 -2.445312 L 0.789062 -2.445312 L 2.953125 0 L 3.691406 0 L 3.691406 -3.019531 L 3.117188 -3.019531 L 3.117188 -0.578125 L 3.113281 -0.578125 L 0.953125 -3.019531 L 0.214844 -3.019531 Z M 0.214844 0 "/></g></g></g><g fill="#e81c2e" fill-opacity="1"><g transform="translate(111.524269, 31.902021)"><g><path d="M 2.164062 0.0976562 C 2.886719 0.0976562 3.484375 -0.179688 3.789062 -0.617188 L 3.796875 -0.617188 L 3.835938 0 L 4.316406 0 L 4.316406 -1.6875 L 1.554688 -1.6875 L 1.554688 -1.308594 L 3.742188 -1.308594 C 3.730469 -0.757812 3.101562 -0.339844 2.304688 -0.339844 C 1.402344 -0.339844 0.753906 -0.820312 0.753906 -1.5 C 0.753906 -2.183594 1.351562 -2.667969 2.1875 -2.660156 C 2.734375 -2.660156 3.246094 -2.417969 3.363281 -2.074219 L 3.914062 -2.199219 C 3.757812 -2.738281 3.019531 -3.113281 2.1875 -3.113281 C 1 -3.113281 0.160156 -2.441406 0.160156 -1.488281 C 0.160156 -0.5625 0.992188 0.0976562 2.164062 0.0976562 Z M 2.164062 0.0976562 "/></g></g></g></svg>